<mxfile host="65bd71144e">
    <diagram id="HIP3nbAZw_EuaXWnEj3U" name="Page-1">
        <mxGraphModel dx="906" dy="749" grid="1" gridSize="10" guides="1" tooltips="1" connect="1" arrows="1" fold="1" page="1" pageScale="1" pageWidth="850" pageHeight="1100" math="0" shadow="0">
            <root>
                <mxCell id="0"/>
                <mxCell id="1" parent="0"/>
                <mxCell id="7" value="http://ics2o.mths.ca" style="swimlane;whiteSpace=wrap;html=1;" parent="1" vertex="1">
                    <mxGeometry x="40" y="40" width="760" height="480" as="geometry"/>
                </mxCell>
                <mxCell id="9" value="&lt;font style=&quot;font-size: 24px;&quot;&gt;Weather here today&lt;/font&gt;" style="text;html=1;align=center;verticalAlign=middle;resizable=0;points=[];autosize=1;strokeColor=none;fillColor=none;" vertex="1" parent="1">
                    <mxGeometry x="285" y="73" width="230" height="40" as="geometry"/>
                </mxCell>
                <mxCell id="11" value="&lt;span style=&quot;color: rgb(0, 0, 0); text-wrap-mode: nowrap;&quot;&gt;Click to see weather&lt;/span&gt;" style="whiteSpace=wrap;html=1;" vertex="1" parent="1">
                    <mxGeometry x="90" y="190" width="160" height="50" as="geometry"/>
                </mxCell>
                <mxCell id="12" value="Weather:..." style="text;html=1;align=center;verticalAlign=middle;resizable=0;points=[];autosize=1;strokeColor=none;fillColor=none;" vertex="1" parent="1">
                    <mxGeometry x="80" y="278" width="80" height="30" as="geometry"/>
                </mxCell>
                <mxCell id="13" value="Tempetature" style="text;html=1;align=center;verticalAlign=middle;resizable=0;points=[];autosize=1;strokeColor=none;fillColor=none;" vertex="1" parent="1">
                    <mxGeometry x="55" y="318" width="90" height="30" as="geometry"/>
                </mxCell>
            </root>
        </mxGraphModel>
    </diagram>
</mxfile>